<svg xmlns="http://www.w3.org/2000/svg" width="1200" height="630" viewBox="0 0 1200 630" role="img" aria-labelledby="title desc">
  <title id="title">Conde Builds social preview</title>
  <desc id="desc">Conde Builds brand card for Marcos M. Conde, finance, treasury, banking operations, and Python automation.</desc>
  <rect width="1200" height="630" fill="#f7f3ea"/>
  <rect x="72" y="72" width="1056" height="486" rx="28" fill="#fffdf8" stroke="#d9d0c2"/>
  <g opacity=".08" stroke="#202726">
    <path d="M120 160h960M120 250h960M120 340h960M120 430h960"/>
    <path d="M232 110v400M412 110v400M592 110v400M772 110v400M952 110v400"/>
  </g>
  <text x="126" y="174" fill="#0d6f68" font-family="Inter, Arial, sans-serif" font-size="25" font-weight="800">CONDE BUILDS</text>
  <text x="126" y="275" fill="#18201f" font-family="Inter, Arial, sans-serif" font-size="66" font-weight="850">Marcos M. Conde</text>
  <text x="126" y="340" fill="#18201f" font-family="Inter, Arial, sans-serif" font-size="36" font-weight="650">Finance, treasury, banking operations, and Python automation</text>
  <text x="126" y="398" fill="#56615f" font-family="Inter, Arial, sans-serif" font-size="27">Treasury Workstation  •  SBLC System  •  Personal AI System</text>
  <g transform="translate(806 178)">
    <rect x="0" y="0" width="92" height="92" rx="18" fill="#0d6f68"/>
    <path d="M26 61V31M26 61h42M39 51l10-13 9 7 13-23" stroke="#fffdf8" stroke-width="6" fill="none" stroke-linecap="round"/>
    <rect x="128" y="82" width="92" height="92" rx="18" fill="#244c8f"/>
    <path d="M154 105h40l8 16v44h-56v-44zM160 135h28M160 150h18M168 105v16M188 105v16" stroke="#fffdf8" stroke-width="5" fill="none" stroke-linecap="round"/>
    <rect x="48" y="204" width="92" height="92" rx="18" fill="#b36b16"/>
    <circle cx="94" cy="250" r="13" stroke="#fffdf8" stroke-width="6" fill="none"/>
    <path d="M94 220v12M94 268v12M64 250h12M112 250h12M73 229l9 9M106 262l9 9M115 229l-9 9M82 262l-9 9" stroke="#fffdf8" stroke-width="5" stroke-linecap="round"/>
  </g>
</svg>

